<svg width="2074" height="532" viewBox="0 0 2074 532" fill="none" xmlns="http://www.w3.org/2000/svg">
<path d="M318.179 56.5857C345.032 2.87967 410.631 -16.7518 458.481 15.8966C488.611 36.4385 505.906 72.9097 499.99 108.228C492.738 151.466 455.323 172.676 430.321 205.021C417.123 222.103 406.382 241.158 400.01 261.851C387.114 303.663 395.036 359.374 409.6 382.98C426.985 411.138 430.048 451.734 414.756 481.59C401.163 508.139 372.43 526.255 343.393 530.534C303.007 536.511 261.648 512.147 244.808 475.311C233.52 450.582 233.553 421.058 244.477 396.238C255.4 371.419 279.49 353.456 297.604 333.37C328.462 299.144 342.3 264.522 342.452 219.251C342.512 206.068 337.841 182.729 337.808 182.568C337.808 182.568 320.151 180.806 307.619 183.537C265.777 192.731 229.334 212.059 204.544 249.562C194.531 264.673 185.276 280.3 175.202 295.411C155.358 325.267 122.952 346.539 86.6322 342.898C38.419 338.012 1.40107 293.863 0.035408 244.982C-0.298359 233.087 1.73544 221.707 5.80132 211.087C21.853 168.275 69.4306 138.358 114.883 149.523C215.893 174.313 279.158 134.566 318.179 56.5857ZM552.632 209.937C604.275 209.937 646.118 251.779 646.118 303.422C646.117 355.064 604.275 396.907 552.632 396.907C500.99 396.906 459.148 355.064 459.147 303.422C459.147 251.779 500.99 209.937 552.632 209.937Z" fill="#2699FB"/>
<path d="M1908.01 190.758H2074V149.706H1908.01C1874.49 149.706 1847.32 176.876 1847.32 210.391V321.052C1847.32 354.567 1874.49 381.737 1908.01 381.737H2074V338.9H1908.01C1896.18 338.9 1886.59 329.311 1886.59 317.482V274.646H2032.95V235.379H1886.59V212.176C1886.59 200.347 1896.18 190.758 1908.01 190.758Z" fill="#2699FB"/>
<path d="M1908.01 190.758H2074V149.706H1908.01C1874.49 149.706 1847.32 176.876 1847.32 210.391V321.052C1847.32 354.567 1874.49 381.737 1908.01 381.737H2074V338.9H1908.01C1896.18 338.9 1886.59 329.311 1886.59 317.482V274.646H2032.95V235.379H1886.59V212.176C1886.59 200.347 1896.18 190.758 1908.01 190.758Z" fill="#0B0D0B"/>
<path d="M1533.62 379.983L1574.54 379.987L1574.52 150.361H1533.59L1533.62 379.983Z" fill="#2699FB"/>
<path d="M1533.62 379.983L1574.54 379.987L1574.52 150.361H1533.59L1533.62 379.983Z" fill="#0B0D0B"/>
<path d="M975.011 379.952H1021.42L904.505 151.059L789.386 379.952H835.792L903.278 242.794L975.011 379.952Z" fill="#2699FB"/>
<path d="M975.011 379.952H1021.42L904.505 151.059L789.386 379.952H835.792L903.278 242.794L975.011 379.952Z" fill="#0B0D0B"/>
<path d="M1270.15 379.952L1170.2 244.303L1270.15 149.706H1209.46L1080.94 267.506L1080.82 150.309H1039.78L1039.9 379.952H1080.94V324.622L1139.86 271.076L1218.39 379.952H1270.15Z" fill="#2699FB"/>
<path d="M1270.15 379.952L1170.2 244.303L1270.15 149.706H1209.46L1080.94 267.506L1080.82 150.309H1039.78L1039.9 379.952H1080.94V324.622L1139.86 271.076L1218.39 379.952H1270.15Z" fill="#0B0D0B"/>
<path d="M1467.15 379.952H1513.56L1396.64 151.059L1281.52 379.952H1327.93L1395.42 242.794L1467.15 379.952Z" fill="#2699FB"/>
<path d="M1467.15 379.952H1513.56L1396.64 151.059L1281.52 379.952H1327.93L1395.42 242.794L1467.15 379.952Z" fill="#0B0D0B"/>
<path d="M1834.73 379.952L1734.78 244.303L1834.73 149.706H1774.05L1645.52 267.506L1645.4 150.309H1604.37L1604.49 379.952H1645.52V324.622L1704.44 271.076L1782.97 379.952H1834.73Z" fill="#2699FB"/>
<path d="M1834.73 379.952L1734.78 244.303L1834.73 149.706H1774.05L1645.52 267.506L1645.4 150.309H1604.37L1604.49 379.952H1645.52V324.622L1704.44 271.076L1782.97 379.952H1834.73Z" fill="#0B0D0B"/>
</svg>
